<?xml version="1.0" encoding="UTF-8"?>
<svg xmlns="http://www.w3.org/2000/svg" width="1962" height="802" viewBox="0 0 1962 802" role="img" aria-labelledby="title desc">
  <title id="title">SAISHO logo</title>
  <desc id="desc">SAISHO wordmark with a blue-to-green AI ligature and molecular node mark.</desc>
  <defs>
    <linearGradient id="aiGradient" gradientUnits="userSpaceOnUse" x1="380" y1="590" x2="790" y2="500">
      <stop offset="0" stop-color="#123E84"/>
      <stop offset="0.28" stop-color="#176FA4"/>
      <stop offset="0.52" stop-color="#20A9B8"/>
      <stop offset="0.74" stop-color="#2CCDA2"/>
      <stop offset="1" stop-color="#39EC78"/>
    </linearGradient>
    <linearGradient id="dotGradient" gradientUnits="userSpaceOnUse" x1="700" y1="320" x2="800" y2="320">
      <stop offset="0" stop-color="#29BDB8"/>
      <stop offset="1" stop-color="#39D5B1"/>
    </linearGradient>
  </defs>
  <path d="M 216.50,349.00 L 240.00,348.53 L 266.00,350.53 L 288.00,354.64 L 326.00,365.90 L 353.72,378.00 L 327.25,434.00 L 322.00,442.08 L 301.00,432.90 L 267.00,421.90 L 251.00,418.64 L 228.00,416.57 L 204.00,419.64 L 189.00,425.97 L 177.87,436.00 L 173.50,449.00 L 174.61,458.00 L 178.00,465.74 L 184.00,472.41 L 192.00,477.74 L 212.00,486.10 L 264.00,499.87 L 294.00,509.86 L 308.00,516.26 L 325.00,527.59 L 339.13,543.00 L 350.10,566.00 L 353.47,587.00 L 353.47,607.00 L 349.10,630.00 L 340.15,651.00 L 327.00,669.50 L 316.00,679.41 L 303.00,688.15 L 276.00,700.10 L 252.00,705.36 L 222.00,707.50 L 187.00,706.47 L 158.00,702.36 L 127.00,694.10 L 95.00,681.73 L 72.09,670.00 L 71.99,667.00 L 101.40,606.00 L 105.00,605.53 L 118.00,613.74 L 139.00,623.73 L 167.00,633.13 L 199.00,638.47 L 224.00,638.47 L 238.00,636.10 L 251.00,631.14 L 262.48,623.00 L 269.36,610.00 L 270.33,602.00 L 268.01,592.00 L 258.00,580.59 L 244.00,573.27 L 227.00,566.90 L 156.72,547.00 L 134.00,536.74 L 117.00,525.41 L 100.60,508.00 L 91.90,492.00 L 86.64,470.00 L 86.53,446.00 L 90.17,428.00 L 98.28,408.00 L 108.60,393.00 L 122.79,379.00 L 149.00,363.29 L 165.00,357.17 L 194.00,350.64 Z M 961.50,352.00 L 1000.00,351.53 L 1043.00,357.64 L 1083.00,369.86 L 1107.00,380.31 L 1108.89,383.00 L 1077.00,445.15 L 1048.00,433.50 L 1020.00,424.87 L 985.00,419.50 L 971.00,419.64 L 954.00,422.64 L 944.00,426.27 L 933.00,433.51 L 925.28,444.00 L 923.53,451.00 L 924.61,463.00 L 928.00,470.19 L 933.79,476.00 L 953.00,486.10 L 1029.00,507.17 L 1063.00,521.26 L 1082.00,534.59 L 1090.00,543.79 L 1099.72,561.00 L 1104.36,576.00 L 1106.50,600.00 L 1104.13,625.00 L 1097.25,647.00 L 1091.50,658.00 L 1081.48,671.00 L 1062.00,687.13 L 1041.00,698.14 L 1012.00,706.36 L 977.00,710.47 L 942.00,709.36 L 913.00,705.36 L 891.00,700.10 L 853.00,687.01 L 823.53,671.00 L 855.00,608.28 L 886.00,623.73 L 902.00,629.83 L 934.00,638.36 L 957.00,641.47 L 973.00,641.47 L 995.00,638.10 L 1010.00,631.42 L 1016.40,626.00 L 1020.72,619.00 L 1023.47,611.00 L 1022.39,598.00 L 1017.40,589.00 L 1012.00,584.58 L 1004.00,579.29 L 988.00,572.50 L 913.00,551.10 L 885.00,538.74 L 868.00,527.41 L 857.60,517.00 L 847.30,502.00 L 840.64,485.00 L 837.50,460.00 L 840.87,435.00 L 851.75,409.00 L 862.00,394.55 L 881.00,377.85 L 904.00,365.27 L 925.00,357.87 L 944.00,353.64 Z M 1703.50,352.00 L 1734.00,351.53 L 1756.00,353.64 L 1775.00,357.90 L 1802.00,367.27 L 1836.21,387.00 L 1847.46,396.00 L 1865.00,413.55 L 1881.15,436.00 L 1895.01,463.00 L 1904.36,500.00 L 1905.50,551.00 L 1902.36,574.00 L 1892.72,605.00 L 1875.42,636.00 L 1865.00,649.45 L 1848.46,666.00 L 1821.00,685.74 L 1788.00,701.10 L 1771.00,706.13 L 1748.00,710.36 L 1704.00,711.47 L 1671.00,707.36 L 1640.00,697.73 L 1611.00,683.13 L 1589.00,666.49 L 1572.00,649.45 L 1562.17,637.00 L 1552.28,622.00 L 1543.28,604.00 L 1536.17,585.00 L 1531.64,566.00 L 1529.53,547.00 L 1529.50,518.00 L 1533.87,490.00 L 1538.90,473.00 L 1548.75,451.00 L 1569.60,420.00 L 1595.00,394.59 L 1616.00,379.50 L 1629.00,372.24 L 1666.00,357.87 L 1685.00,353.64 Z M 1168.18,358.00 L 1248.00,357.50 L 1251.00,358.73 L 1251.50,491.00 L 1253.00,494.58 L 1257.00,495.50 L 1382.00,495.50 L 1392.00,494.18 L 1393.50,491.00 L 1394.00,358.73 L 1397.00,357.50 L 1478.54,358.00 L 1479.50,703.00 L 1478.29,706.00 L 1397.00,706.50 L 1394.00,705.27 L 1393.47,569.00 L 1392.00,566.09 L 1389.00,565.50 L 1253.00,566.09 L 1251.50,570.00 L 1251.17,705.00 L 1248.00,706.50 L 1167.35,706.00 L 1166.50,362.00 Z M 1707.00,424.87 L 1686.00,429.17 L 1665.00,438.26 L 1650.00,448.59 L 1635.58,464.00 L 1626.30,478.00 L 1615.90,503.00 L 1612.53,523.00 L 1613.64,549.00 L 1618.90,570.00 L 1627.85,589.00 L 1638.60,604.00 L 1654.00,618.42 L 1669.00,628.04 L 1691.00,636.13 L 1704.00,638.47 L 1734.00,638.36 L 1757.00,632.48 L 1776.00,623.15 L 1790.00,612.49 L 1804.00,596.21 L 1814.04,578.00 L 1821.13,556.00 L 1823.47,539.00 L 1822.36,518.00 L 1817.83,497.00 L 1810.25,479.00 L 1798.40,461.00 L 1786.00,448.59 L 1768.00,436.26 L 1747.00,427.90 L 1728.00,424.53 Z" fill="#FFFFFF" fill-rule="evenodd"/>
  <g stroke="#FFFFFF" stroke-width="18" stroke-linecap="round" fill="none">
    <path d="M 750,100 L 635,210 L 750,320 L 865,210 Z"/>
  </g>
  <g fill="#FFFFFF">
    <circle cx="750" cy="100" r="50"/>
    <circle cx="635" cy="210" r="50"/>
    <circle cx="865" cy="210" r="50"/>
  </g>
  <path d="M 745.50,389.00 L 763.00,391.50 L 776.12,400.00 L 785.14,413.00 L 789.50,431.00 L 789.50,651.00 L 788.36,667.00 L 784.15,680.00 L 772.00,694.41 L 762.00,700.01 L 748.00,702.47 L 733.00,699.73 L 720.54,692.00 L 710.75,678.00 L 707.50,665.00 L 707.64,423.00 L 711.30,411.00 L 720.54,399.00 L 734.00,391.27 Z M 507.50,420.00 L 531.00,419.53 L 551.00,422.64 L 563.00,425.90 L 586.00,435.29 L 608.46,452.00 L 625.15,472.00 L 636.72,492.00 L 649.10,526.00 L 667.87,607.00 L 676.90,637.00 L 691.85,671.00 L 706.99,689.00 L 706.99,693.00 L 704.00,696.38 L 700.00,697.50 L 664.00,697.47 L 651.00,694.83 L 642.00,690.74 L 632.00,683.49 L 625.00,673.74 L 615.00,648.80 L 605.40,663.00 L 592.00,676.41 L 580.00,685.15 L 564.00,693.73 L 549.00,699.10 L 528.00,703.36 L 504.00,704.50 L 486.00,702.36 L 461.00,695.73 L 438.25,684.00 L 419.22,669.00 L 404.90,653.00 L 395.42,638.00 L 386.90,619.00 L 380.64,594.00 L 378.53,573.00 L 381.64,540.00 L 384.90,526.00 L 393.28,503.00 L 406.87,479.00 L 413.60,470.00 L 426.00,456.51 L 439.79,445.00 L 452.00,437.26 L 472.00,427.90 L 491.00,422.64 Z M 507.00,479.87 L 487.00,485.86 L 477.00,491.85 L 461.00,506.55 L 453.50,517.00 L 445.86,534.00 L 442.64,546.00 L 440.53,563.00 L 441.64,578.00 L 445.90,595.00 L 453.00,610.48 L 461.60,623.00 L 470.00,631.41 L 488.00,643.51 L 508.00,648.36 L 526.00,648.36 L 544.00,643.48 L 554.00,638.15 L 565.46,630.00 L 578.15,616.00 L 587.72,599.00 L 593.13,583.00 L 595.47,566.00 L 594.36,551.00 L 592.10,539.00 L 584.00,518.52 L 576.40,507.00 L 565.00,495.59 L 551.00,486.29 L 536.00,480.87 L 530.00,479.53 Z" fill="url(#aiGradient)" fill-rule="evenodd"/>
  <circle cx="750" cy="320" r="50" fill="url(#dotGradient)"/>
</svg>
